<svg xmlns="http://www.w3.org/2000/svg" width="100" height="50" viewBox="0 0 72 30">
    <g id="Materials" transform="translate(-642.212 -32)">
        <rect id="Background" width="58" height="18" rx="4" transform="translate(642.212 38)" fill="#181818" opacity="0.77" />
        <circle id="Background-2" data-name="Background" cx="15" cy="15" r="15" transform="translate(684.212 32)" fill="#1c2230" />
        <g id="Icon" transform="translate(436.732 -3620.313)">
            <g id="g876" transform="translate(260.256 3674.308)">
                <path id="path878" d="M2143.855-1792.872l-1.526,2.936c-.308-.165-.049-1.328.633-3.129a8.258,8.258,0,0,0,.893.193" transform="translate(-2142.201 1793.065)" fill="#d4672f" />
            </g>
            <g id="g880" transform="translate(260.384 3674.501)">
                <path id="path882" d="M2149.054-1786.617c-1.32,1.913-2.3,3-2.642,2.813l1.526-2.936a10.346,10.346,0,0,0,1.116.123" transform="translate(-2146.411 1786.74)" fill="#9f4a23" />
            </g>
            <g id="g888" transform="translate(253.48 3662.421)">
                <path id="path890" d="M1929.516-2171.123c-.675-.093-1.369-.454-1.369-1.138,0-1.563,3.52-1.555,3.52,0C1931.667-2171.357,1930.506-2170.985,1929.516-2171.123Zm7.462-6.725c-.912-2.2-3.727-3.544-5.875-3.979-4.792-.97-12.356,1.526-10.268,5.435.586,1.1,1.957,1.076,3.063.972.931-.086,2.663-.537,2.847.859.16,1.216-.608,2.216.019,3.5a2.561,2.561,0,0,0,2.01,1.243c3.629.6,10.414-2.705,8.2-8.032" transform="translate(-1920.48 2182.037)" fill="#ebb98b" />
            </g>
            <path id="path908" d="M1966.659-2100.556a1.2,1.2,0,0,1-1.2,1.2,1.2,1.2,0,0,1-1.2-1.2,1.2,1.2,0,0,1,1.2-1.2,1.2,1.2,0,0,1,1.2,1.2" transform="translate(-1709.444 5766.629)" fill="#ef4f25" />
            <path id="path910" d="M2075.806-2141.262a1.2,1.2,0,0,1-1.2,1.2,1.2,1.2,0,0,1-1.2-1.2,1.2,1.2,0,0,1,1.2-1.2,1.2,1.2,0,0,1,1.2,1.2" transform="translate(-1815.255 5806.092)" fill="#534b3c" />
            <g id="g912" transform="translate(261.709 3663.235)">
                <path id="path914" d="M2192.144-2154.219a1.2,1.2,0,0,1-1.2,1.2,1.2,1.2,0,0,1-1.2-1.2,1.2,1.2,0,0,1,1.2-1.2,1.2,1.2,0,0,1,1.2,1.2" transform="translate(-2189.746 2155.417)" fill="#3388c8" />
            </g>
            <g id="g916" transform="translate(265.024 3664.433)">
                <path id="path918" d="M2300.645-2115a1.2,1.2,0,0,1-1.2,1.2,1.2,1.2,0,0,1-1.2-1.2,1.2,1.2,0,0,1,1.2-1.2,1.2,1.2,0,0,1,1.2,1.2" transform="translate(-2298.247 2116.203)" fill="#ec2986" />
            </g>
            <g id="g920" transform="translate(266.85 3667.367)">
                <path id="path922" d="M2360.391-2018.98a1.2,1.2,0,0,1-1.2,1.2,1.2,1.2,0,0,1-1.2-1.2,1.2,1.2,0,0,1,1.2-1.2,1.2,1.2,0,0,1,1.2,1.2" transform="translate(-2357.993 2020.178)" fill="#2c9b47" />
            </g>
            <g id="g924" transform="translate(262.516 3664.936)">
                <path id="path926" d="M2221.425-2099.345a80.42,80.42,0,0,1-4.22,7.95,2.911,2.911,0,0,1-1.041.042l4.5-8.4.762.407" transform="translate(-2216.164 2099.752)" fill="#9f4a23" />
            </g>
            <g id="g928" transform="translate(261.69 3664.528)">
                <path id="path930" d="M2194.458-2112.677l-4.5,8.4a2.186,2.186,0,0,1-.826-.274,80.288,80.288,0,0,1,4.566-8.532l.759.407" transform="translate(-2189.133 2113.084)" fill="#d4672f" />
            </g>
            <g id="g932" transform="translate(267.756 3656.313)">
                <path id="path934" d="M2391.52-2381.907a8.382,8.382,0,0,0-3.178,2.776c-1.6,2.488.045,3.072.045,3.072l3.133-5.848" transform="translate(-2387.642 2381.907)" fill="#434343" />
            </g>
            <g id="g936" transform="translate(268.502 3656.313)">
                <path id="path938" d="M2415.172-2381.916a8.385,8.385,0,0,1-.55,4.184c-1.184,2.711-2.583,1.664-2.583,1.664l3.133-5.848" transform="translate(-2412.039 2381.916)" fill="#1c1c1c" />
            </g>
            <g id="g940" transform="translate(266.256 3661.506)">
                <path id="path942" d="M2341.7-2211.178l-1.52-.814-1.619,3.022,1.52.814,1.619-3.022" transform="translate(-2338.564 2211.992)" fill="#5c5b5b" />
            </g>
            <g id="g944" transform="translate(266.939 3662.423)">
                <path id="path946" d="M2362.665-2180.522l-1.773-.949.283-.527,1.773.95-.282.527" transform="translate(-2360.892 2181.999)" fill="#807f7f" />
            </g>
            <g id="g948" transform="translate(266.848 3663.012)">
                <path id="path950" d="M2359.465-2161.5l-1.53-.819.207-.386,1.53.82-.206.385" transform="translate(-2357.935 2162.709)" fill="#434343" />
            </g>
        </g>
    </g>
</svg>
  