<svg xmlns="http://www.w3.org/2000/svg" width="103.093" height="125" viewBox="0 0 103.093 125">
    <g id="trofeo" transform="translate(0)">
        <g id="_x3C_Group_x3E__31_" transform="translate(1.831 1.831)">
            <path id="Trazado_1" data-name="Trazado 1" d="M244.336,262.5h0V249.005H233.349v17.4l5.919.978,5.067-.978Z" transform="translate(-189.164 -190.044)" fill="#ffd064" />
            <g id="Grupo_1" data-name="Grupo 1" transform="translate(0 7.568)">
                <path id="Trazado_2" data-name="Trazado 2" d="M108.97,91.84H95.192a3.659,3.659,0,0,1-.9-.113L81.08,88.37A38.33,38.33,0,0,1,52.485,55.964,15.541,15.541,0,0,1,67.906,38.5h68.35a15.54,15.54,0,0,1,15.421,17.464A38.33,38.33,0,0,1,123.082,88.37l-13.21,3.357A3.671,3.671,0,0,1,108.97,91.84Zm13.21-7.019h0Zm-26.53-.305h12.862l12.766-3.244a30.822,30.822,0,0,0,23.131-26.214,8.216,8.216,0,0,0-8.153-9.233H67.906a8.216,8.216,0,0,0-8.153,9.233A30.822,30.822,0,0,0,82.884,81.271Z" transform="translate(-52.366 -38.5)" fill="#ffd064" />
            </g>
            <path id="Trazado_3" data-name="Trazado 3" d="M219.7,328.628H186.872v-3.474c0-2.465,1.3-4.5,3.674-4.835a4.94,4.94,0,0,1,.684-.048h24.965a4.884,4.884,0,0,1,4.836,4.206c.031.221-.748.825-.748,1.055Z" transform="translate(-154.034 -243.911)" fill="#ffe07d" />
            <path id="Trazado_4" data-name="Trazado 4" d="M219.451,325.3v3.474l-17.045,2.117-17.687-2.117V325.3a4.883,4.883,0,0,1,4.2-4.834,4.871,4.871,0,0,0-.049.684v2.253a1.221,1.221,0,0,0,1.221,1.221h29.314A4.765,4.765,0,0,1,219.451,325.3Z" transform="translate(-152.407 -244.061)" fill="#ffd064" />
            <path id="Trazado_5" data-name="Trazado 5" d="M148.745,32.957l.416,32.164c0,14.663,11.051,26.263,25.714,26.263,4.307,0,8.375-.117,11.972-1.937a26.55,26.55,0,0,0,14.578-23.7V32.957Z" transform="translate(-125.215 -26.742)" fill="#ffe07d" />
            <path id="Trazado_6" data-name="Trazado 6" d="M185.543,87.9A26.56,26.56,0,0,1,147.02,64.2V32.767l3.081-1.852,4.244,1.852V61.758a26.575,26.575,0,0,0,31.2,26.145Z" transform="translate(-123.911 -25.198)" fill="#ffd064" />
            <path id="Trazado_7" data-name="Trazado 7" d="M195.582,354.5H147c-2.022,0-3.02,1.756-3.02,3.779l.577,28.17a3.662,3.662,0,0,0,3.662,3.662l47.29.166c2.022,0,3.737-.8,3.737-2.818v-29.3A3.662,3.662,0,0,0,195.582,354.5Z" transform="translate(-121.612 -269.783)" fill="#ab7b64" />
            <path id="Trazado_8" data-name="Trazado 8" d="M197.258,387.215v.244a3.662,3.662,0,0,1-3.662,3.662H145.012a3.662,3.662,0,0,1-3.662-3.662v-29.3a3.662,3.662,0,0,1,3.662-3.662h.244v30.762a1.953,1.953,0,0,0,1.953,1.953Z" transform="translate(-119.625 -269.783)" fill="#9a6a53" />
            <path id="Trazado_9" data-name="Trazado 9" d="M213.537,384.5H177.462l-1.689,1.109a1.221,1.221,0,0,0-1.221,1.221l.722,17.23a1.221,1.221,0,0,0,1.221,1.221l35.806.525a1.221,1.221,0,0,0,1.221-1.221l1.236-1.53V385.721a1.221,1.221,0,0,0-1.221-1.221Z" transform="translate(-144.722 -292.459)" fill="#ffe07d" />
            <path id="Trazado_10" data-name="Trazado 10" d="M213.183,403.055v2.2a1.221,1.221,0,0,1-1.221,1.221H173.691a1.221,1.221,0,0,1-1.221-1.221V385.721a1.221,1.221,0,0,1,1.221-1.221h2.2v17.578a.977.977,0,0,0,.977.977Z" transform="translate(-143.148 -292.459)" fill="#ffd064" />
            <path id="Trazado_11" data-name="Trazado 11" d="M193.512,14.131l-52.921.306A2.441,2.441,0,0,1,138.149,12l.146-2.054A2.441,2.441,0,0,1,140.736,7.5h52.882a2.441,2.441,0,0,1,2.441,2.441v2.686C196.059,13.975,194.86,14.131,193.512,14.131Z" transform="translate(-117.206 -7.5)" fill="#ffe07d" />
            <path id="Trazado_12" data-name="Trazado 12" d="M194.7,11.406v1.221a2.442,2.442,0,0,1-2.441,2.441H138.791a2.442,2.442,0,0,1-2.441-2.441V9.941A2.442,2.442,0,0,1,138.791,7.5h1.221V8.965a2.442,2.442,0,0,0,2.441,2.441Z" transform="translate(-115.846 -7.5)" fill="#ffd064" />
        </g>
        <g id="Grupo_3" data-name="Grupo 3" transform="translate(0)">
            <g id="Grupo_2" data-name="Grupo 2">
                <path id="Trazado_13" data-name="Trazado 13" d="M143.608,13.441a17.38,17.38,0,0,0-13.021-5.873h-3.206v-3.3A4.277,4.277,0,0,0,123.109,0H69.642a4.277,4.277,0,0,0-4.272,4.272v3.3H62.237A17.372,17.372,0,0,0,45,27.089,40.162,40.162,0,0,0,74.96,61.044l2.031.516a28.367,28.367,0,0,0,12.06,6.7v8.1H83.893a6.721,6.721,0,0,0-6.714,6.714v1.643h-5.1A5.5,5.5,0,0,0,66.59,90.21v29.3A5.5,5.5,0,0,0,72.083,125h48.584a5.5,5.5,0,0,0,5.493-5.493V90.21a5.5,5.5,0,0,0-5.493-5.493h-5.1V83.074a6.722,6.722,0,0,0-6.714-6.714H103.7V68.248a28.368,28.368,0,0,0,11.98-6.65l2.185-.555a40.163,40.163,0,0,0,18.057-10.081,1.831,1.831,0,0,0-2.551-2.628,36.47,36.47,0,0,1-13.423,8.259,28.344,28.344,0,0,0,2.706-5.09,32.594,32.594,0,0,0,17.9-25.321,10.047,10.047,0,0,0-9.97-11.291h-5.85V11.23h5.85a13.709,13.709,0,0,1,13.6,15.406,36.125,36.125,0,0,1-5.644,15.425,1.831,1.831,0,1,0,3.065,2,39.759,39.759,0,0,0,6.213-16.976,17.382,17.382,0,0,0-4.217-13.648ZM69.031,4.272a.611.611,0,0,1,.61-.61h53.467a.611.611,0,0,1,.61.61V6.958a.611.611,0,0,1-.61.61h-6.2a1.831,1.831,0,0,0,0,3.662h4.166v29.6a24.719,24.719,0,0,1-49.438,0V36.138a1.831,1.831,0,1,0-3.662,0v4.695a28.409,28.409,0,0,0,.534,5.484A29.011,29.011,0,0,1,55.9,25.73a6.385,6.385,0,0,1,6.336-7.175h5.738v9a1.831,1.831,0,1,0,3.662,0V11.23H108.4a1.831,1.831,0,1,0,0-3.662H69.642a.611.611,0,0,1-.61-.61Zm-11.548,42a36.354,36.354,0,0,1-8.851-19.633,13.709,13.709,0,0,1,13.6-15.406h5.738v3.662H62.237a10.047,10.047,0,0,0-9.97,11.29A32.623,32.623,0,0,0,70.03,51.434a28.327,28.327,0,0,0,2.7,5.11A36.333,36.333,0,0,1,57.483,46.269ZM122.5,90.21v29.3a1.833,1.833,0,0,1-1.831,1.831H72.083a1.833,1.833,0,0,1-1.831-1.831V90.21a1.833,1.833,0,0,1,1.831-1.831h48.584A1.833,1.833,0,0,1,122.5,90.21Zm-10.589-7.136v1.643H80.841V83.074a3.055,3.055,0,0,1,3.052-3.052h24.965A3.055,3.055,0,0,1,111.909,83.074ZM100.037,76.36H92.713V68.98a28.553,28.553,0,0,0,7.324-.005Zm30.55-57.805a6.385,6.385,0,0,1,6.336,7.176A28.979,28.979,0,0,1,124.187,46.4a28.4,28.4,0,0,0,.55-5.57V18.555Z" transform="translate(-44.865)" />
                <path id="Trazado_14" data-name="Trazado 14" d="M180.347,378.831a1.831,1.831,0,0,0,1.831,1.831h23.5v18.311H168.628V380.662h4.948a1.831,1.831,0,1,0,0-3.662h-5.559a3.055,3.055,0,0,0-3.052,3.052v19.531a3.055,3.055,0,0,0,3.052,3.052h38.273a3.055,3.055,0,0,0,3.052-3.052V380.052A3.055,3.055,0,0,0,206.291,377H182.178a1.831,1.831,0,0,0-1.831,1.831Z" transform="translate(-135.645 -284.959)" />
                <path id="Trazado_15" data-name="Trazado 15" d="M200.849,438.831a1.831,1.831,0,0,0,1.831,1.831h23.194a1.831,1.831,0,1,0,0-3.662H202.68A1.831,1.831,0,0,0,200.849,438.831Z" transform="translate(-162.767 -330.311)" />
                <path id="Trazado_16" data-name="Trazado 16" d="M220.68,410.662h14.4a1.831,1.831,0,1,0,0-3.662h-14.4a1.831,1.831,0,1,0,0,3.662Z" transform="translate(-176.373 -307.635)" />
            </g>
        </g>
    </g>
</svg>
  